<?xml version="1.0" encoding="utf-8"?>
<!-- Generator: Adobe Illustrator 16.0.0, SVG Export Plug-In . SVG Version: 6.00 Build 0)  -->
<!DOCTYPE svg PUBLIC "-//W3C//DTD SVG 1.1//EN" "http://www.w3.org/Graphics/SVG/1.1/DTD/svg11.dtd">
<svg version="1.1" id="Layer_1" xmlns="http://www.w3.org/2000/svg" xmlns:xlink="http://www.w3.org/1999/xlink" x="0px" y="0px"
	 width="800px" height="289.09px" viewBox="0 0 800 289.09" enable-background="new 0 0 800 289.09" xml:space="preserve">
<path fill="#E31837" d="M254.457,150.361c-0.899,10.276-11.177,10.276-11.177,10.276h-92.484l8.091-92.486
	c0.9-10.277,11.175-10.277,11.175-10.277h92.486L254.457,150.361z M303.14,181.19l12.587-143.867c0,0,2.696-30.829-28.133-30.829
	H143.728c0,0-30.829,0-33.527,30.829L97.616,181.19c0,0-2.698,30.829,28.131,30.829h143.868
	C269.614,212.019,300.443,212.019,303.14,181.19"/>
<path fill="#E31837" d="M737.441,150.361c-0.898,10.276-11.177,10.276-11.177,10.276h-92.485l8.091-92.486
	c0.898-10.277,11.177-10.277,11.177-10.277h92.485L737.441,150.361z M786.125,181.19L798.71,37.323c0,0,2.699-30.829-28.131-30.829
	H626.712c0,0-30.829,0-33.526,30.829L580.599,181.19c0,0-2.696,30.829,28.132,30.829h143.867
	C752.598,212.019,783.428,212.019,786.125,181.19"/>
<path fill="#E31837" d="M504.037,57.875l-8.091,92.486c-0.898,10.276-11.174,10.276-11.174,10.276h-92.486l8.092-92.485
	c0.898-10.277,11.176-10.277,11.176-10.277H504.037z M529.087,6.494H385.22c0,0-30.829,0-33.526,30.83L339.106,181.19
	c0,0-2.696,30.829,28.133,30.829h97.624l-1.348,15.414c-0.901,10.277-11.176,10.277-11.176,10.277h-66.796l-3.596,41.104
	c0,0-0.898,10.276,9.377,10.276h87.35c0,0,30.828,0,33.523-30.827l4.095-46.79c8.896-1.527,26.34-7.427,28.34-30.283l12.586-143.866
	C557.219,37.324,559.916,6.494,529.087,6.494"/>
<path fill="#E31837" d="M133.776,237.708H56.703L76.976,5.981H35.872c0,0-10.275,0-11.175,10.276L5.323,237.708l-2.39,27.305
	l-0.044,0.514c0,0-2.063,23.563,21.501,23.563h94.614c0,0,10.275,0,11.175-10.276L133.776,237.708z"/>
</svg>
